<svg width="50" height="48" viewBox="0 0 50 48" fill="none" xmlns="http://www.w3.org/2000/svg">
<path fill-rule="evenodd" clip-rule="evenodd" d="M50 6.25C50 4.5924 49.3415 3.00269 48.1694 1.83058C46.9973 0.65848 45.4076 0 43.75 0L6.25 0C4.5924 0 3.00269 0.65848 1.83058 1.83058C0.65848 3.00269 0 4.5924 0 6.25L0 31.25C0 32.9076 0.65848 34.4973 1.83058 35.6694C3.00269 36.8415 4.5924 37.5 6.25 37.5H36.2063C37.035 37.5002 37.8297 37.8295 38.4156 38.4156L47.3312 47.3312C47.5496 47.5501 47.828 47.6993 48.1311 47.76C48.4343 47.8206 48.7487 47.7899 49.0344 47.6718C49.3201 47.5537 49.5644 47.3535 49.7363 47.0965C49.9081 46.8395 49.9999 46.5373 50 46.2281V6.25ZM22.4812 14.8937C22.7531 15.2812 22.9906 15.7062 23.1906 16.1469C24.5281 19.1094 24.4188 23.575 20.2469 27.7281C19.9922 27.9763 19.6524 28.1178 19.2968 28.1236C18.9413 28.1294 18.597 27.9991 18.3344 27.7594C18.2063 27.6434 18.1034 27.5024 18.0319 27.3452C17.9604 27.1879 17.9218 27.0177 17.9186 26.8449C17.9154 26.6722 17.9476 26.5006 18.0132 26.3408C18.0788 26.181 18.1764 26.0363 18.3 25.9156C19.6094 24.6156 20.4 23.3188 20.8281 22.1031C19.9875 22.6187 18.9906 22.9156 17.9219 22.9156C14.9219 22.9156 12.5 20.5844 12.5 17.7094C12.5 14.8344 14.925 12.5 17.9188 12.5C18.7656 12.5 19.5687 12.6875 20.2812 13.0187L20.3062 13.0312C20.8344 13.25 21.3281 13.6 21.7719 14.0437C22.0375 14.3031 22.275 14.5875 22.4812 14.8937ZM34.375 22.1031C33.5344 22.6187 32.5375 22.9156 31.4688 22.9156C28.475 22.9156 26.0469 20.5844 26.0469 17.7094C26.0469 14.8344 28.475 12.5 31.4656 12.5C32.3125 12.5 33.1156 12.6875 33.8281 13.0187L33.8531 13.0312C34.3844 13.25 34.875 13.6 35.3187 14.0437C35.5844 14.3031 35.8219 14.5875 36.0281 14.8937C36.3 15.2812 36.5406 15.7062 36.7406 16.1469C38.0781 19.1094 37.9656 23.575 33.7969 27.7281C33.5421 27.9772 33.2016 28.1193 32.8453 28.1251C32.489 28.1309 32.144 28 31.8812 27.7594C31.7532 27.6434 31.6503 27.5024 31.5788 27.3452C31.5073 27.1879 31.4687 27.0177 31.4655 26.8449C31.4623 26.6722 31.4944 26.5006 31.56 26.3408C31.6256 26.181 31.7232 26.0363 31.8469 25.9156C33.1594 24.6156 33.9469 23.3188 34.3781 22.1031H34.375Z" fill="#27AE60" fill-opacity="0.2"/>
</svg>
