<svg width="50" height="44" viewBox="0 0 50 44" fill="none" xmlns="http://www.w3.org/2000/svg">
<path d="M41.6667 40.0208L46.7708 43.125L45.4167 37.2708L50 33.3542L43.9792 32.8333L41.6667 27.3333L39.3125 32.8333L33.3333 33.3542L37.875 37.2708L36.4583 43.125L41.6667 40.0208ZM29.3333 37.75H4.16667C1.97917 37.75 0 35.7708 0 33.5833V4.41667C0 2.22917 1.97917 0.25 4.16667 0.25H45.8333C48.0208 0.25 50 2.22917 50 4.41667V26.3542C47.712 24.2976 44.7431 23.162 41.6667 23.1667C34.7708 23.1667 29.1667 28.7708 29.1667 35.6667C29.1667 36.375 29.2292 37.0833 29.3333 37.75ZM16.6667 22.9792C12.5 22.9792 4.16667 25.25 4.16667 29.4167V31.5H29.1667V29.4167C29.1667 25.25 20.8333 22.9792 16.6667 22.9792ZM16.6667 6.5C13.2292 6.5 10.4167 9.3125 10.4167 12.75C10.4167 16.1875 13.2292 19 16.6667 19C20.1042 19 22.9167 16.1875 22.9167 12.75C22.9167 9.3125 20.1042 6.5 16.6667 6.5ZM43.75 14.8333H29.1667V16.9167H43.75V14.8333ZM45.8333 10.6667H29.1667V12.75H45.8333V10.6667ZM45.8333 6.5H29.1667V8.58333H45.8333V6.5Z" fill="#44A0D8" fill-opacity="0.2"/>
</svg>
